<svg xmlns="http://www.w3.org/2000/svg" width="35.88" height="56.209" viewBox="0 0 35.88 56.209">
  <g id="Group_1" data-name="Group 1" transform="translate(-243.8 -39.61)">
    <rect id="Rectangle_34" data-name="Rectangle 34" width="4.31" height="11.21" rx="2.15" transform="translate(274.83 74.12)" fill="none" stroke="#222221" stroke-linecap="round" stroke-miterlimit="10" stroke-width="1"/>
    <rect id="Rectangle_35" data-name="Rectangle 35" width="4.31" height="11.21" rx="2.15" transform="translate(248.61 85.33) rotate(180)" fill="none" stroke="#222221" stroke-linecap="round" stroke-miterlimit="10" stroke-width="1"/>
    <path id="Path_90" data-name="Path 90" d="M266.06,67l-2.45.84a1.56,1.56,0,0,1-.71.08l-10.17-.39a1.33,1.33,0,0,0-1,.34,58.69,58.69,0,0,1-5.5,4.6.67.67,0,0,0-.12,1.05c1,1,2.82,1.26,5.37-1.17a.62.62,0,0,1,.82,0c2,1.62,4,2.85,6.39,1.93,2.08,1.55,3.78,3,4.6,3.64a1.65,1.65,0,0,1,.19,2.37l-.06.06c-.81.72-1.74.7-5-2.24" transform="translate(8.77 8.68)" fill="none" stroke="#222221" stroke-linecap="round" stroke-miterlimit="10" stroke-width="1"/>
    <path id="Path_91" data-name="Path 91" d="M239.62,66.66l1.66.59a1.9,1.9,0,0,0,.94.2c1.25,0,7,.7,8.3,1.46" transform="translate(8.77 8.68)" fill="none" stroke="#222221" stroke-miterlimit="10" stroke-width="1"/>
    <line id="Line_15" data-name="Line 15" x2="3.28" y2="2.02" transform="translate(247.71 85.08)" fill="none" stroke="#222221" stroke-linecap="round" stroke-miterlimit="10" stroke-width="1"/>
    <rect id="Rectangle_36" data-name="Rectangle 36" width="2.71" height="4.74" rx="1.355" transform="translate(252.69 84.917) rotate(37.75)" fill="none" stroke="#222221" stroke-linecap="round" stroke-miterlimit="10" stroke-width="1"/>
    <rect id="Rectangle_37" data-name="Rectangle 37" width="2.71" height="4.74" rx="1.355" transform="translate(255.003 86.508) rotate(37.75)" fill="none" stroke="#222221" stroke-linecap="round" stroke-miterlimit="10" stroke-width="1"/>
    <rect id="Rectangle_38" data-name="Rectangle 38" width="2.71" height="4.74" rx="1.355" transform="translate(257.25 88.077) rotate(37.75)" fill="none" stroke="#222221" stroke-linecap="round" stroke-miterlimit="10" stroke-width="1"/>
    <rect id="Rectangle_39" data-name="Rectangle 39" width="2.71" height="4.74" rx="1.355" transform="translate(259.426 89.71) rotate(37.75)" fill="none" stroke="#222221" stroke-linecap="round" stroke-miterlimit="10" stroke-width="1"/>
    <line id="Line_16" data-name="Line 16" x1="3.6" y2="1.75" transform="translate(271.45 84.34)" fill="none" stroke="#222221" stroke-linecap="round" stroke-miterlimit="10" stroke-width="1"/>
    <path id="Path_92" data-name="Path 92" d="M258.85,78.52s2.14,1.64,1.32,2.82-2.09.65-4.82-1.59c2.19,1.85,3,2.7,2.18,3.73s-2.58.45-4.32-1.49c1.81,1.74,2.2,2.62,1.43,3.55s-2.32.31-3.38-.76" transform="translate(8.77 8.68)" fill="none" stroke="#222221" stroke-linecap="round" stroke-miterlimit="10" stroke-width="1"/>
    <path id="Path_93" data-name="Path 93" d="M244.3,82V42.3h34.84V82.75" fill="none" stroke="#222221" stroke-linecap="round" stroke-miterlimit="10" stroke-width="1"/>
    <rect id="Rectangle_40" data-name="Rectangle 40" width="5.33" height="7.09" transform="translate(247.57 45.67)" fill="none" stroke="#222221" stroke-linecap="round" stroke-miterlimit="10" stroke-width="1"/>
    <rect id="Rectangle_41" data-name="Rectangle 41" width="5.33" height="7.09" transform="translate(254.71 45.67)" fill="none" stroke="#222221" stroke-linecap="round" stroke-miterlimit="10" stroke-width="1"/>
    <rect id="Rectangle_42" data-name="Rectangle 42" width="5.33" height="7.09" transform="translate(254.71 55.49)" fill="none" stroke="#222221" stroke-linecap="round" stroke-miterlimit="10" stroke-width="1"/>
    <rect id="Rectangle_43" data-name="Rectangle 43" width="5.33" height="7.09" transform="translate(254.71 65.3)" fill="none" stroke="#222221" stroke-linecap="round" stroke-miterlimit="10" stroke-width="1"/>
    <rect id="Rectangle_44" data-name="Rectangle 44" width="5.33" height="7.09" transform="translate(247.57 55.49)" fill="none" stroke="#222221" stroke-linecap="round" stroke-miterlimit="10" stroke-width="1"/>
    <rect id="Rectangle_45" data-name="Rectangle 45" width="5.33" height="7.09" transform="translate(247.57 65.44)" fill="none" stroke="#222221" stroke-linecap="round" stroke-miterlimit="10" stroke-width="1"/>
    <rect id="Rectangle_46" data-name="Rectangle 46" width="5.33" height="7.09" transform="translate(262.9 45.67)" fill="none" stroke="#222221" stroke-linecap="round" stroke-miterlimit="10" stroke-width="1"/>
    <rect id="Rectangle_47" data-name="Rectangle 47" width="5.33" height="7.09" transform="translate(270.03 45.67)" fill="none" stroke="#222221" stroke-linecap="round" stroke-miterlimit="10" stroke-width="1"/>
    <rect id="Rectangle_48" data-name="Rectangle 48" width="5.33" height="7.09" transform="translate(270.03 55.49)" fill="none" stroke="#222221" stroke-linecap="round" stroke-miterlimit="10" stroke-width="1"/>
    <rect id="Rectangle_49" data-name="Rectangle 49" width="5.33" height="7.09" transform="translate(270.03 65.3)" fill="none" stroke="#222221" stroke-linecap="round" stroke-miterlimit="10" stroke-width="1"/>
    <rect id="Rectangle_50" data-name="Rectangle 50" width="5.33" height="7.09" transform="translate(262.9 55.49)" fill="none" stroke="#222221" stroke-linecap="round" stroke-miterlimit="10" stroke-width="1"/>
    <rect id="Rectangle_51" data-name="Rectangle 51" width="5.33" height="7.09" transform="translate(262.9 65.44)" fill="none" stroke="#222221" stroke-linecap="round" stroke-miterlimit="10" stroke-width="1"/>
    <path id="Path_94" data-name="Path 94" d="M246.48,40.11H277a2.18,2.18,0,0,1,2.18,2.18H244.3A2.18,2.18,0,0,1,246.48,40.11Z" fill="none" stroke="#222221" stroke-linecap="round" stroke-miterlimit="10" stroke-width="1"/>
  </g>
</svg>
